<svg width="81" height="83" viewBox="0 0 81 83" fill="none" xmlns="http://www.w3.org/2000/svg">
<g clip-path="url(#clip0)">
<path d="M54.482 46.0639V15.9639C54.482 8.36387 48.782 8.56387 48.782 8.56387H39.582C35.582 4.56387 32.682 -0.0361328 26.582 -0.0361328C20.482 -0.0361328 13.982 8.76385 13.982 8.76385C13.982 8.76385 12.082 8.96387 5.68204 8.96387C2.78204 8.86387 0.282031 11.1639 0.0820312 14.0639C0.0820312 14.4639 0.0820374 14.9639 0.182037 15.3639V44.2639C0.182037 51.6639 5.68204 51.3639 5.68204 51.3639H48.882C55.182 51.5639 54.482 46.0639 54.482 46.0639ZM27.182 38.6639C21.382 38.6639 16.682 33.9639 16.682 28.2639C16.682 22.4639 21.382 17.7639 27.082 17.7639C32.882 17.7639 37.582 22.4639 37.582 28.1639C37.582 34.0639 32.882 38.6639 27.182 38.6639Z" fill="white"/>
<path d="M58.9821 22.364C59.1821 23.564 58.9821 38.9641 58.9821 38.9641H71.5821V59.6641C71.5821 59.6641 59.2821 62.9641 59.2821 73.6641C59.2821 84.3641 72.5821 84.864 81.0821 76.264V22.1641L58.9821 22.364Z" fill="white"/>
<path d="M49.982 55.7637V76.1637C41.482 84.7637 28.182 84.2637 28.182 73.5637C28.182 62.8637 40.482 59.5637 40.482 59.5637V55.7637H49.982Z" fill="white"/>
</g>
<defs>
<clipPath id="clip0">
<rect width="81" height="82.2" fill="white"/>
</clipPath>
</defs>
</svg>
