<?xml version="1.0" encoding="UTF-8" standalone="no"?>
<!DOCTYPE svg PUBLIC "-//W3C//DTD SVG 1.1//EN" "http://www.w3.org/Graphics/SVG/1.1/DTD/svg11.dtd">
<svg width="100%" height="100%" viewBox="0 0 586 283" version="1.1" xmlns="http://www.w3.org/2000/svg" xmlns:xlink="http://www.w3.org/1999/xlink" xml:space="preserve" xmlns:serif="http://www.serif.com/" style="fill-rule:evenodd;clip-rule:evenodd;stroke-linejoin:round;stroke-miterlimit:2;">
    <g transform="matrix(1,0,0,1,-548.84636,-490.104999)">
        <g transform="matrix(1.319582,0,0,1.319582,251.743189,137.975749)">
            <path d="M348.57,296.375C346.208,296.9 343.78,298.41 341.287,300.903C339.056,303.003 336.694,306.152 334.2,310.351C331.707,314.551 329.214,320.587 326.72,328.461L294.438,432L278.691,432L240.306,318.422C238.469,313.041 236.665,308.875 234.893,305.922C233.122,302.97 231.514,300.772 230.071,299.328C228.365,297.753 226.724,296.769 225.149,296.375L225.149,294.21L266.683,294.21L266.683,296.375C264.321,296.769 262.418,297.753 260.975,299.328C259.794,300.772 258.974,302.97 258.514,305.922C258.055,308.875 258.744,313.041 260.581,318.422L293.257,414.875L315.894,342.437C318.65,333.513 319.995,326.099 319.929,320.193C319.864,314.288 318.945,309.564 317.173,306.021C315.402,302.478 312.974,299.984 309.89,298.541C306.806,297.097 303.624,296.375 300.343,296.375L300.146,294.21L348.373,294.21L348.57,296.375Z" style="fill:rgb(5,36,48);fill-rule:nonzero;"/>
            <path d="M385.182,301.887L383.017,301.887C380.13,301.887 377.702,302.871 375.734,304.84C373.766,306.808 372.781,309.17 372.781,311.926L372.781,318.422L370.026,318.422L370.026,311.926C370.026,309.17 369.041,306.808 367.073,304.84C365.105,302.871 362.677,301.887 359.79,301.887L357.625,301.887L357.625,299.131L359.79,299.131C362.677,299.131 365.105,298.147 367.073,296.179C369.041,294.21 370.026,291.783 370.026,288.895L370.026,282.4L372.781,282.4L372.781,288.895C372.781,291.783 373.766,294.21 375.734,296.179C377.702,298.147 380.13,299.131 383.017,299.131L385.182,299.131L385.182,301.887ZM395.221,432L347.586,432L347.586,429.835C350.21,429.441 352.572,428.391 354.672,426.685C356.378,425.242 357.953,423.076 359.396,420.189C360.84,417.302 361.561,413.169 361.561,407.788L361.561,357.2C361.561,351.819 360.84,347.653 359.396,344.7C357.953,341.748 356.378,339.55 354.672,338.106C352.572,336.531 350.21,335.547 347.586,335.153L347.586,332.988C353.622,332.726 359.134,332.266 364.12,331.61C369.107,330.954 374.291,329.642 379.671,327.673L381.246,328.658L381.246,407.788C381.246,413.169 381.967,417.302 383.411,420.189C384.854,423.076 386.495,425.242 388.332,426.685C390.3,428.391 392.597,429.441 395.221,429.835L395.221,432Z" style="fill:rgb(5,36,48);fill-rule:nonzero;"/>
            <path d="M454.668,429.835L454.668,432L407.032,432L407.032,429.835C409.657,429.441 412.019,428.391 414.118,426.685C415.824,425.242 417.399,423.076 418.843,420.189C420.286,417.302 421.008,413.169 421.008,407.788L421.008,309.367C421.008,303.987 420.286,299.82 418.843,296.868C417.399,293.915 415.824,291.717 414.118,290.273C412.019,288.699 409.657,287.714 407.032,287.321L407.032,285.155C410.706,285.155 414.282,284.631 417.76,283.581C421.237,282.531 424.387,281.153 427.208,279.447C430.03,277.741 432.425,275.773 434.393,273.542C436.362,271.311 437.739,269.08 438.527,266.849L440.692,266.849L440.692,407.788C440.692,413.169 441.414,417.302 442.857,420.189C444.301,423.076 445.941,425.242 447.778,426.685C449.747,428.391 452.043,429.441 454.668,429.835Z" style="fill:rgb(5,36,48);fill-rule:nonzero;"/>
            <path d="M504.272,479.045L504.272,481.211L456.636,481.211L456.636,479.045C459.261,478.652 461.623,477.667 463.723,476.093C465.429,474.649 467.003,472.451 468.447,469.499C469.89,466.546 470.612,462.379 470.612,456.999L470.612,357.2C470.612,351.819 469.89,347.653 468.447,344.7C467.003,341.748 465.429,339.55 463.723,338.106C461.623,336.531 459.261,335.547 456.636,335.153L456.636,332.988C462.673,332.857 468.184,332.43 473.171,331.709C478.158,330.987 483.341,329.642 488.722,327.673L490.296,328.658L490.296,353.46C491.215,350.835 492.494,348.047 494.135,345.094C495.775,342.141 497.973,339.353 500.729,336.728C503.485,334.104 506.831,331.938 510.768,330.232C514.705,328.526 519.363,327.673 524.744,327.673C531.699,327.673 537.67,329.15 542.656,332.102C547.643,335.055 551.711,338.992 554.861,343.913C558.01,348.834 560.34,354.51 561.849,360.94C563.358,367.37 564.112,374.063 564.112,381.018C564.112,388.104 563.358,394.862 561.849,401.293C560.34,407.723 558.01,413.398 554.861,418.319C551.711,423.241 547.643,427.177 542.656,430.13C537.67,433.083 531.699,434.559 524.744,434.559C519.363,434.559 514.705,433.706 510.768,432C506.831,430.294 503.485,428.129 500.729,425.504C497.973,422.88 495.775,420.058 494.135,417.04C492.494,414.022 491.215,411.2 490.296,408.576L490.296,456.999C490.296,462.379 491.018,466.546 492.462,469.499C493.905,472.451 495.546,474.649 497.383,476.093C499.351,477.667 501.648,478.652 504.272,479.045ZM518.051,423.929C522.513,423.929 526.286,422.716 529.37,420.288C532.453,417.86 534.98,414.612 536.948,410.544C538.916,406.476 540.327,401.883 541.18,396.765C542.033,391.647 542.46,386.398 542.46,381.018C542.46,375.637 542.033,370.388 541.18,365.27C540.327,360.152 538.916,355.559 536.948,351.491C534.98,347.423 532.453,344.175 529.37,341.748C526.286,339.32 522.513,338.106 518.051,338.106C515.164,338.106 512.507,338.664 510.079,339.779C507.651,340.895 505.519,342.338 503.682,344.11C501.844,345.881 500.237,347.915 498.859,350.212C497.481,352.508 496.267,354.838 495.217,357.2C492.855,362.843 491.215,369.273 490.296,376.49L490.296,385.742C491.215,392.828 492.855,399.193 495.217,404.836C496.267,407.198 497.481,409.527 498.859,411.824C500.237,414.12 501.844,416.154 503.682,417.926C505.519,419.697 507.651,421.141 510.079,422.256C512.507,423.372 515.164,423.929 518.051,423.929Z" style="fill:rgb(5,36,48);fill-rule:nonzero;"/>
            <path d="M559.191,332.398L559.191,330.036L600.922,330.036L600.922,332.398C598.822,332.529 597.182,333.119 596.001,334.169C594.951,335.219 594.229,336.761 593.836,338.795C593.442,340.829 593.967,343.88 595.41,347.948L620.803,416.646L636.354,365.861C638.453,359.168 639.437,353.657 639.306,349.326C639.175,344.996 638.289,341.584 636.649,339.09C635.008,336.597 632.81,334.858 630.055,333.874C627.299,332.89 624.215,332.398 620.803,332.398L620.803,330.036L669.029,330.036L669.029,332.398C666.405,332.529 663.78,333.448 661.156,335.153C658.925,336.597 656.563,338.861 654.069,341.945C651.576,345.028 649.345,349.523 647.377,355.428L616.276,450.11C614.57,455.49 612.732,459.952 610.764,463.495C608.796,467.038 606.63,469.991 604.268,472.353C601.906,474.715 599.282,476.585 596.395,477.963C593.507,479.341 590.292,480.423 586.749,481.211L568.64,456.605L570.805,455.031C572.117,456.343 573.626,457.524 575.332,458.574C576.907,459.492 578.777,460.313 580.942,461.034C583.108,461.756 585.634,462.117 588.521,462.117C593.507,462.117 598.297,460.542 602.89,457.393C607.483,454.243 610.961,448.797 613.323,441.055L616.079,432L606.04,432L574.545,347.948C572.708,344.011 570.871,341.026 569.033,338.992C567.196,336.958 565.556,335.416 564.112,334.366C562.406,333.185 560.766,332.529 559.191,332.398Z" style="fill:rgb(5,36,48);fill-rule:nonzero;"/>
        </g>
    </g>
</svg>
