<svg xmlns="http://www.w3.org/2000/svg" xmlns:xlink="http://www.w3.org/1999/xlink" id="Laag_1" x="0px" y="0px" viewBox="0 0 24.2 15.6" style="enable-background:new 0 0 24.2 15.6;" xml:space="preserve"><style type="text/css">.st0VIS{fill:#FF8300;}</style><path class="st0VIS" d="M21.9,7.3c0.5-1.4,2.3-6.5,2.3-6.5s-4.2,2.1-5.4,2.9c-0.4,0.3-0.5,0.1-0.8-0.2c-1.2-1.4-2.7-2.4-4.4-2.9  c-2.4-0.8-4.8-0.8-7.2,0.1C4.5,1.5,2.9,2.5,1.5,4c-2,2.2-2.1,5.3,0.1,7.7c2,2.2,5.7,4.1,8.6,3.9c2.1,0,4-0.6,5.7-1.6  c0.9-0.5,1.7-1.1,2.3-2c0.3-0.4,0.5-0.2,0.8,0c1.1,0.8,5.3,2.8,5.3,2.8s-1.7-5-2.3-6.5C21.8,8,21.8,7.6,21.9,7.3z"></path>
</svg>